<?xml version="1.0" encoding="utf-8"?>
<!-- Generator: Adobe Illustrator 20.1.0, SVG Export Plug-In . SVG Version: 6.00 Build 0)  -->
<svg version="1.1" id="ps_x5F_cc_x5F_app_x5F_RGB.svg"
	 xmlns="http://www.w3.org/2000/svg" xmlns:xlink="http://www.w3.org/1999/xlink" x="0px" y="0px" viewBox="0 0 240 240"
	 style="enable-background:new 0 0 240 240;" xml:space="preserve">
<style type="text/css">
	.st0{fill:#00C8FF;}
	.st1{fill:#001D26;}
</style>
<rect class="st0" width="240" height="240"/>
<g>
	<rect x="10" y="10" class="st1" width="220" height="220"/>
</g>
<path class="st0" d="M58,57.8c0-0.7,1.4-1.2,2.2-1.2c6.4-0.3,15.9-0.5,25.8-0.5c27.7,0,38.5,15.2,38.5,34.6
	c0,25.4-18.4,36.3-41,36.3c-3.8,0-5.1-0.2-7.8-0.2v38.4c0,0.8-0.3,1.2-1.2,1.2H59.2c-0.8,0-1.2-0.3-1.2-1.2V57.8z M75.8,110.9
	c2.3,0.2,4.1,0.2,8.1,0.2c11.7,0,22.7-4.1,22.7-20c0-12.7-7.9-19.1-21.2-19.1c-4,0-7.8,0.2-9.6,0.3V110.9z M161.8,99
	c-7.9,0-10.6,4-10.6,7.3c0,3.6,1.8,6.1,12.4,11.6c15.7,7.6,20.6,14.9,20.6,25.6c0,16-12.2,24.6-28.7,24.6c-8.7,0-16.2-1.8-20.5-4.3
	c-0.7-0.3-0.8-0.8-0.8-1.6v-14.7c0-1,0.5-1.3,1.2-0.8c6.3,4.1,13.5,5.9,20.1,5.9c7.9,0,11.2-3.3,11.2-7.8c0-3.6-2.3-6.8-12.4-12
	c-14.2-6.8-20.1-13.7-20.1-25.2c0-12.9,10.1-23.6,27.6-23.6c8.6,0,14.6,1.3,17.9,2.8c0.8,0.5,1,1.3,1,2v13.7c0,0.8-0.5,1.3-1.5,1
	C174.8,100.7,168.3,99,161.8,99z"/>
</svg>
