<?xml version="1.0" encoding="utf-8"?>
<!-- Generator: Adobe Illustrator 20.1.0, SVG Export Plug-In . SVG Version: 6.00 Build 0)  -->
<svg version="1.1" id="mnemonic" xmlns="http://www.w3.org/2000/svg" xmlns:xlink="http://www.w3.org/1999/xlink" x="0px" y="0px"
	 viewBox="0 0 240 240" style="enable-background:new 0 0 240 240;" xml:space="preserve">
<style type="text/css">
	.st0{fill:#EE3D8F;}
	.st1{fill:url(#SVGID_1_);}
</style>
<rect class="st0" width="240" height="240"/>
<title>id</title>
<radialGradient id="SVGID_1_" cx="97.8302" cy="151.71" r="143.43" gradientTransform="matrix(1 0 0 -1.028 -0.1202 239.2523)" gradientUnits="userSpaceOnUse">
	<stop  offset="0" style="stop-color:#320008;stop-opacity:0.85"/>
	<stop  offset="0.77" style="stop-color:#320008"/>
</radialGradient>
<rect x="10" y="10" class="st1" width="220" height="220"/>
<path class="st0" d="M87.8,165.2c0,1-0.2,1.3-1.3,1.3H71.1c-1,0-1.3-0.5-1.3-1.3V57.8c0-1,0.5-1.3,1.3-1.3h15.5
	c0.8,0,1.2,0.3,1.2,1.2V165.2z M105.4,126.4c0-23.9,15.8-42.6,41-42.6c2.1,0,3.3,0,5.3,0.2V57.5c0-0.6,0.4-1,1-1H169
	c0.8,0,1,0.3,1,0.8v93.5c-0.1,3.4,0.1,6.7,0.5,10.1c0,0.7-0.2,0.8-0.9,1.1c-8.2,3.9-17.2,5.9-26.2,5.9
	C121.3,168,105.4,154.3,105.4,126.4z M151.8,100.2c-1.9-0.7-3.9-1.1-5.9-1c-12.9,0-21.9,9.9-21.9,26.4c0,18.8,9.2,26.4,20.7,26.4
	c2.4,0.1,4.8-0.3,7.1-1.2V100.2z"/>
</svg>
