<?xml version="1.0" encoding="utf-8"?>
<!-- Generator: Adobe Illustrator 20.1.0, SVG Export Plug-In . SVG Version: 6.00 Build 0)  -->
<svg version="1.1" id="mnemonic" xmlns="http://www.w3.org/2000/svg" xmlns:xlink="http://www.w3.org/1999/xlink" x="0px" y="0px"
	 viewBox="0 0 240 240" style="enable-background:new 0 0 240 240;" xml:space="preserve">
<style type="text/css">
	.st0{fill:#FCAF17;}
	.st1{fill:url(#SVGID_1_);}
</style>
<rect class="st0" width="240" height="240"/>
<title>br</title>
<radialGradient id="SVGID_1_" cx="97.71" cy="151.71" r="143.43" gradientTransform="matrix(1 0 0 -1.028 0 239.2523)" gradientUnits="userSpaceOnUse">
	<stop  offset="0" style="stop-color:#301800;stop-opacity:0.85"/>
	<stop  offset="0.77" style="stop-color:#301800"/>
</radialGradient>
<rect x="10" y="10" class="st1" width="220" height="220"/>
<path class="st0" d="M61.8,57.8c0-0.8,0.2-1.2,0.8-1.3c4.6-0.2,17.1-0.5,27.2-0.5c30.5,0,36,17.8,36,28.5c0,12.2-5.9,19.2-10.2,22.6
	c6.1,3,15.2,10.6,15.2,26.2c0,20.8-16.7,33.5-42.1,33.3c-10.9,0-20.4-0.2-25.7-0.3c-0.7,0-1.2-0.6-1.2-1.3L61.8,57.8z M79.3,100.8
	h10.1c4.2-0.1,8.4,0.2,12.6,0.8c3.5-3,6.3-7.4,6.3-14.5c0-10.2-6.9-15.3-18.6-15.3c-4,0-7.8,0.2-10.4,0.3L79.3,100.8z M79.3,151
	c3,0.2,5.8,0.2,9.4,0.2c13,0,23.5-4.9,23.5-17.5c0-7.8-4-13.4-12-15.9c-3.2-0.9-6.4-1.3-9.7-1.3H79.3V151z M144.3,101.7
	c0-1.2,0-4.1-0.5-9.7c0-0.8,0.1-1,0.8-1.3c11.7-4.5,24.1-6.8,36.6-6.9c0.8,0,1.1,0.2,1.1,1v14.5c0,0.8-0.3,1-1.1,1
	c-6.3-0.3-15.4,0.5-18.9,2v63.1c0,0.8-0.3,1.2-1.1,1.2h-15.7c-0.8,0-1.2-0.3-1.2-1.2V101.7z"/>
</svg>
