<?xml version="1.0" encoding="utf-8"?>
<!-- Generator: Adobe Illustrator 20.1.0, SVG Export Plug-In . SVG Version: 6.00 Build 0)  -->
<svg version="1.1" id="pr_x5F_cc_x5F_app_x5F_RGB.svg"
	 xmlns="http://www.w3.org/2000/svg" xmlns:xlink="http://www.w3.org/1999/xlink" x="0px" y="0px" viewBox="0 0 240 240"
	 style="enable-background:new 0 0 240 240;" xml:space="preserve">
<style type="text/css">
	.st0{fill:#EA77FF;}
	.st1{fill:#2A0034;}
</style>
<rect class="st0" width="240" height="240"/>
<g>
	<rect x="10" y="10" class="st1" width="220" height="220"/>
</g>
<path class="st0" d="M63,57.8c0-0.7,0.2-1.2,1-1.2c6.4-0.3,15.8-0.5,25.7-0.5c27.7,0,39.8,15.2,39.8,34.6c0,25.4-18.4,36.3-41,36.3
	c-3.8,0-5.1-0.2-7.8-0.2v38.4c0,0.8-0.3,1.2-1.2,1.2H64.1c-0.8,0-1.2-0.3-1.2-1.2V57.8z M80.7,110.9c2.3,0.2,4.1,0.2,8.1,0.2
	c11.7,0,22.7-4.1,22.7-20c0-12.7-7.8-19.1-21.2-19.1c-4,0-7.8,0.2-9.6,0.3C80.7,72.3,80.7,110.9,80.7,110.9z M144.7,101.8
	c0-1.2,0-4.1-0.5-9.7c0-0.8,0.1-1,0.8-1.3c6.1-2.5,20.4-6.9,36.6-6.9c0.8,0,1.2,0.2,1.2,1v14.5c0,0.8-0.3,1-1.1,1
	c-6.3-0.3-15.4,0.5-18.9,2v63c0,0.8-0.3,1.2-1.2,1.2h-15.7c-0.8,0-1.2-0.3-1.2-1.2V101.8z"/>
</svg>
