<?xml version="1.0" encoding="utf-8"?>
<!-- Generator: Adobe Illustrator 20.1.0, SVG Export Plug-In . SVG Version: 6.00 Build 0)  -->
<svg version="1.1" id="Layer_1" xmlns="http://www.w3.org/2000/svg" xmlns:xlink="http://www.w3.org/1999/xlink" x="0px" y="0px"
	 viewBox="0 0 538.6 538.6" style="enable-background:new 0 0 538.6 538.6;" xml:space="preserve">
<style type="text/css">
	.Arched_x0020_Green{fill:url(#SVGID_1_);stroke:#FFFFFF;stroke-width:0.25;stroke-miterlimit:1;}
	.st0{fill:#0D57A7;}
	.st1{fill:#409AD6;}
	.st2{fill:#FFFFFF;}
	.st3{fill:url(#SVGID_2_);}
	.st4{fill:url(#SVGID_3_);}
	.st5{fill:url(#SVGID_4_);}
	.st6{opacity:5.000000e-02;}
	.st7{fill:url(#SVGID_5_);}
</style>
<linearGradient id="SVGID_1_" gradientUnits="userSpaceOnUse" x1="0" y1="595.2803" x2="0.7071" y2="594.5732">
	<stop  offset="0" style="stop-color:#00A53B"/>
	<stop  offset="0.9831" style="stop-color:#133618"/>
</linearGradient>
<g>
	<g>
		<polygon class="st0" points="405.5,467.5 269.3,504.1 133.1,467.5 101.6,126.9 436.9,126.9 		"/>
		<polygon class="st1" points="269.3,154.5 269.3,474.9 269.6,475 379.8,445.3 405.3,154.5 		"/>
		<g>
			<polygon points="192,76.9 192,56.6 221.6,56.6 221.6,34.5 169.8,34.5 169.8,97.1 221.6,97.1 221.6,76.9 			"/>
			<path d="M274.8,56.6h20.7V34.5h-51.8c0,0,0,11.1,0,22.2c6.9,6.9,10.5,10.2,20.5,20.3c-5.9,0-20.5,0-20.5,0v20.2h51.8V76.9
				L274.8,56.6z"/>
			<path d="M348.1,56.6h20.7V34.5H317c0,0,0,11.1,0,22.2c6.9,6.9,10.5,10.2,20.6,20.3c-5.9,0-20.6,0-20.6,0v20.2h51.8V76.9
				L348.1,56.6z"/>
		</g>
		<g>
			<polygon class="st2" points="269.2,239.7 171.7,280.3 174.9,320.5 269.2,280.2 369.4,237.3 373.6,196.2 			"/>
			<linearGradient id="SVGID_2_" gradientUnits="userSpaceOnUse" x1="220.4224" y1="320.457" x2="220.4224" y2="239.6557">
				<stop  offset="0.3865" style="stop-color:#DCDDDD;stop-opacity:0"/>
				<stop  offset="1" style="stop-color:#DCDDDD"/>
			</linearGradient>
			<polygon class="st3" points="171.7,280.3 174.9,320.5 269.2,280.2 269.2,239.7 			"/>
			<linearGradient id="SVGID_3_" gradientUnits="userSpaceOnUse" x1="321.3789" y1="280.1562" x2="321.3789" y2="196.1674">
				<stop  offset="0.3865" style="stop-color:#DCDDDD;stop-opacity:0"/>
				<stop  offset="1" style="stop-color:#DCDDDD"/>
			</linearGradient>
			<polygon class="st4" points="373.6,196.2 269.2,239.7 269.2,280.2 369.4,237.3 			"/>
			<linearGradient id="SVGID_4_" gradientUnits="userSpaceOnUse" x1="171.8267" y1="356.496" x2="365.8906" y2="356.496">
				<stop  offset="0" style="stop-color:#EEEEEC"/>
				<stop  offset="1" style="stop-color:#FFFFFF"/>
			</linearGradient>
			<polygon class="st5" points="171.8,280.3 175.1,320.5 319.7,320.9 316.5,374.5 268.9,387.9 223.1,376.4 220.3,343.1 177.8,343.1 
				183.4,407.3 269.3,432.7 354.8,407.8 365.9,280.3 			"/>
			<g class="st6">
				<polygon points="269.2,280.3 171.7,280.3 174.9,320.5 269.2,320.8 				"/>
				<polygon points="269.2,387.8 268.7,387.9 223,376.4 220.2,343.1 177.7,343.1 183.2,407.3 269.2,432.7 				"/>
			</g>
			<linearGradient id="SVGID_5_" gradientUnits="userSpaceOnUse" x1="162.898" y1="216.7282" x2="373.5899" y2="216.7282">
				<stop  offset="0" style="stop-color:#EEEEEC"/>
				<stop  offset="1" style="stop-color:#FFFFFF"/>
			</linearGradient>
			<polygon class="st7" points="162.9,196.2 373.6,196.2 369.4,237.3 168,237.3 			"/>
			<polygon class="st6" points="269.2,196.2 162.9,196.2 168,237.3 269.2,237.3 			"/>
		</g>
	</g>
</g>
</svg>
