<?xml version="1.0" encoding="utf-8"?>
<!-- Generator: Adobe Illustrator 20.1.0, SVG Export Plug-In . SVG Version: 6.00 Build 0)  -->
<svg version="1.1" id="图层_1" xmlns="http://www.w3.org/2000/svg" xmlns:xlink="http://www.w3.org/1999/xlink" x="0px" y="0px"
	 viewBox="0 0 4320 675" style="enable-background:new 0 0 4320 675;" xml:space="preserve">
<style type="text/css">
	.st0{fill:#FFFFFF;}
	.st1{fill:#D80808;}
</style>
<g>
	<g>
		<rect class="st0" width="135" height="675"/>
		<polygon class="st0" points="1080,135 1620,135 1620,270 1080,270 1080,405 1080,675 1215,675 1215,405 1755,405 1755,270 
			1755,135 1755,0 1080,0 		"/>
		<polygon class="st0" points="405,0 270,0 270,675 405,675 405,135 810,135 810,540 540,540 540,675 810,675 945,675 945,0 810,0 
					"/>
		<rect x="1350" y="540" class="st0" width="405" height="135"/>
		<polygon class="st0" points="1890,0 1890,135 1890,405 2025,405 2025,135 2565,135 2565,0 		"/>
		<polygon class="st0" points="2160,405 2430,405 2430,540 1890,540 1890,675 2565,675 2565,540 2565,405 2565,270 2160,270 		"/>
	</g>
	<rect x="540" y="270" class="st1" width="135" height="135"/>
</g>
<g>
	<path class="st0" d="M3670,465h-70c-11,0-20-9-20-20c0-11,9-20,20-20h100v-20h-100c-22.1,0-40,17.9-40,40c0,22.1,17.9,40,40,40h70
		c27.6,0,50,22.4,50,50s-22.4,50-50,50h-100v20h100c38.7,0,70-31.3,70-70C3740,496.3,3708.7,465,3670,465z"/>
	<path class="st0" d="M3780,445h-20v100c0,33.1,26.9,60,60,60v-20c-22.1,0-40-17.9-40-40v-60h40v-20h-40V445z"/>
	<path class="st0" d="M3940,545c0,22.1-17.9,40-40,40s-40-17.9-40-40v-80h-20v80c0,33.1,26.9,60,60,60s60-26.9,60-60v-80h-20V545z"
		/>
	<path class="st0" d="M4100,486.1c-12.7-13-30.4-21.1-50-21.1c-38.7,0-70,31.3-70,70c0,38.7,31.3,70,70,70v-20
		c-27.6,0-50-22.4-50-50s22.4-50,50-50s50,22.4,50,50v70h20V405h-20V486.1z"/>
	<rect x="4140" y="425" class="st0" width="20" height="20"/>
	<rect x="4140" y="465" class="st0" width="20" height="140"/>
	<path class="st0" d="M4250,465c-38.7,0-70,31.3-70,70c0,38.7,31.3,70,70,70s70-31.3,70-70C4320,496.3,4288.7,465,4250,465z
		 M4250,585c-27.6,0-50-22.4-50-50s22.4-50,50-50s50,22.4,50,50S4277.6,585,4250,585z"/>
	<path class="st0" d="M2760,405h-40h-20v200h20V425h40c44.2,0,80,35.8,80,80s-35.8,80-80,80v20c55.2,0,100-44.8,100-100
		C2860,449.8,2815.2,405,2760,405z"/>
	<path class="st0" d="M2950,465c-38.7,0-70,31.3-70,70c0,38.7,31.3,70,70,70v-20c-24.2,0-44.4-17.2-49-40h98h14.3h6
		c0.5-3.3,0.7-6.6,0.7-10C3020,496.3,2988.7,465,2950,465z M2901,525c4.6-22.8,24.8-40,49-40s44.4,17.2,49,40H2901z"/>
	<path class="st0" d="M3140,525h-60c-11,0-20-9-20-20c0-11,9-20,20-20h90v-20h-90c-22.1,0-40,17.9-40,40c0,22.1,17.9,40,40,40h60
		c11,0,20,9,20,20s-9,20-20,20h-90v20h90c22.1,0,40-17.9,40-40C3180,542.9,3162.1,525,3140,525z"/>
	<rect x="3200" y="425" class="st0" width="20" height="20"/>
	<rect x="3200" y="465" class="st0" width="20" height="140"/>
	<path class="st0" d="M3360,486.1c-12.7-13-30.4-21.1-50-21.1c-38.7,0-70,31.3-70,70c0,38.7,31.3,70,70,70v-20
		c-27.6,0-50-22.4-50-50s22.4-50,50-50s50,22.4,50,50v70c0,27.6-22.4,50-50,50v20c38.7,0,70-31.3,70-70V465h-20V486.1z"/>
	<path class="st0" d="M3460,465c-15.4,0-29.4,5.8-40,15.4V465h-20v140h20v-80c0-22.1,17.9-40,40-40s40,17.9,40,40v80h20v-80
		C3520,491.9,3493.1,465,3460,465z"/>
</g>
</svg>
