<?xml version="1.0" encoding="utf-8"?>
<!-- Generator: Adobe Illustrator 20.1.0, SVG Export Plug-In . SVG Version: 6.00 Build 0)  -->
<svg version="1.1" id="图层_1" xmlns="http://www.w3.org/2000/svg" xmlns:xlink="http://www.w3.org/1999/xlink" x="0px" y="0px"
	 viewBox="0 0 25 25" style="enable-background:new 0 0 25 25;" xml:space="preserve">
<style type="text/css">
	.st0{fill:#FFFFFF;}
	.st1{fill:#D80808;}
</style>
<g>
	<rect x="16" y="12" class="st0" width="1" height="7"/>
	<polygon class="st0" points="23,13 23,12 18,12 18,13 20,13 20,14 18,14 18,15 20,15 20,16 18,16 18,17 20,17 20,18 18,18 18,19 
		20,19 21,19 23,19 23,18 21,18 21,17 23,17 23,16 21,16 21,15 23,15 23,14 21,14 21,13 	"/>
	<polygon class="st0" points="16,21 16,23 17,23 17,21 19,21 19,23 20,23 20,21 22,21 22,23 23,23 23,21 23,20 16,20 	"/>
	<path class="st0" d="M13,17v-5h-1h-1h-1v5h1h1H13z M11,13h1v3h-1V13z"/>
	<path class="st0" d="M13,18h-1v5h1h1h1v-5h-1H13z M14,22h-1v-3h1V22z"/>
	<path class="st0" d="M9,18H8v5h1h1h1v-5h-1H9z M10,22H9v-3h1V22z"/>
	<polygon class="st0" points="1,14 0,14 0,15 0,23 1,23 1,15 2,15 2,14 2,12 1,12 	"/>
	<polygon class="st0" points="7,14 7,13 4,13 4,12 3,12 3,13 3,23 4,23 4,18 7,18 7,17 4,17 4,16 7,16 7,15 4,15 4,14 	"/>
</g>
<g>
	<polygon class="st1" points="3,0 2,0 1,0 0,0 0,1 1,1 1,2 1,3 1,4 0,4 0,5 1,5 2,5 2,4 2,3 2,2 2,1 3,1 4,1 4,2 4,3 4,4 3,4 3,5 
		4,5 5,5 5,4 5,3 5,2 5,1 5,0 4,0 	"/>
	<polygon class="st1" points="10,0 9,0 8,0 7,0 6,0 6,1 6,2 6,3 6,4 6,5 6,6 6,7 6,8 6,9 6,10 6,11 7,11 8,11 9,11 10,11 11,11 
		11,10 10,10 9,10 8,10 7,10 7,9 7,8 7,7 7,6 7,5 7,4 7,3 7,2 7,1 8,1 9,1 10,1 10,2 10,3 9,3 8,3 8,4 8,5 8,6 9,6 10,6 10,7 10,8 
		9,8 8,8 8,9 9,9 10,9 11,9 11,8 11,7 11,6 11,5 10,5 9,5 9,4 10,4 11,4 11,3 11,2 11,1 11,0 	"/>
	<polygon class="st1" points="4,6 3,6 2,6 1,6 0,6 0,7 0,8 0,9 0,10 0,11 1,11 1,10 1,9 1,8 1,7 2,7 3,7 4,7 4,8 4,9 4,10 3,10 
		2,10 2,11 3,11 4,11 5,11 5,10 5,9 5,8 5,7 5,6 	"/>
	<polygon class="st1" points="16,0 15,0 14,0 13,0 12,0 12,1 12,2 12,3 12,4 12,5 12,6 12,7 12,8 12,9 13,9 13,8 13,7 13,6 13,5 
		14,5 15,5 15,4 14,4 13,4 13,3 13,2 13,1 14,1 15,1 16,1 16,2 16,3 16,4 16,5 16,6 16,7 16,8 15,8 14,8 14,9 15,9 16,9 17,9 17,8 
		17,7 17,6 17,5 17,4 17,3 17,2 17,1 17,0 	"/>
	<polygon class="st1" points="22,0 21,0 20,0 19,0 18,0 18,1 18,2 18,3 18,4 18,5 18,6 18,7 18,8 18,9 19,9 19,8 19,7 20,7 21,7 
		21,6 20,6 19,6 19,5 19,4 20,4 21,4 21,3 20,3 19,3 19,2 19,1 20,1 21,1 22,1 22,2 22,3 22,4 22,5 22,6 22,7 22,8 22,9 22,10 
		21,10 20,10 19,10 18,10 17,10 16,10 15,10 14,10 13,10 12,10 12,11 13,11 14,11 15,11 16,11 17,11 18,11 19,11 20,11 21,11 22,11 
		23,11 23,10 23,9 23,8 23,7 23,6 23,5 23,4 23,3 23,2 23,1 23,0 	"/>
</g>
<polygon class="st1" points="24,1 24,24 1,24 1,25 25,25 25,24 25,1 "/>
</svg>
