<?xml version="1.0" encoding="utf-8"?>
<!-- Generator: Adobe Illustrator 20.1.0, SVG Export Plug-In . SVG Version: 6.00 Build 0)  -->
<svg version="1.1" id="图层_1" xmlns="http://www.w3.org/2000/svg" xmlns:xlink="http://www.w3.org/1999/xlink" x="0px" y="0px"
	 viewBox="0 0 2565 1080" style="enable-background:new 0 0 2565 1080;" xml:space="preserve">
<style type="text/css">
	.st0{fill:#FFFFFF;}
	.st1{fill:#D80808;}
</style>
<g>
	<g>
		<rect class="st0" width="135" height="675"/>
		<polygon class="st0" points="1080,135 1620,135 1620,270 1080,270 1080,405 1080,675 1215,675 1215,405 1755,405 1755,270 
			1755,135 1755,0 1080,0 		"/>
		<polygon class="st0" points="405,0 270,0 270,675 405,675 405,135 810,135 810,540 540,540 540,675 810,675 945,675 945,0 810,0 
					"/>
		<rect x="1350" y="540" class="st0" width="405" height="135"/>
		<polygon class="st0" points="1890,0 1890,135 1890,405 2025,405 2025,135 2565,135 2565,0 		"/>
		<polygon class="st0" points="2160,405 2430,405 2430,540 1890,540 1890,675 2565,675 2565,540 2565,405 2565,270 2160,270 		"/>
	</g>
	<rect x="540" y="270" class="st1" width="135" height="135"/>
</g>
<g>
	<path class="st0" d="M1445,870h-70c-11,0-20-9-20-20c0-11,9-20,20-20h100v-20h-100c-22.1,0-40,17.9-40,40c0,22.1,17.9,40,40,40h70
		c27.6,0,50,22.4,50,50s-22.4,50-50,50h-100v20h100c38.7,0,70-31.3,70-70C1515,901.3,1483.7,870,1445,870z"/>
	<path class="st0" d="M1555,850h-20v100c0,33.1,26.9,60,60,60v-20c-22.1,0-40-17.9-40-40v-60h40v-20h-40V850z"/>
	<path class="st0" d="M1715,950c0,22.1-17.9,40-40,40s-40-17.9-40-40v-80h-20v80c0,33.1,26.9,60,60,60s60-26.9,60-60v-80h-20V950z"
		/>
	<path class="st0" d="M1875,891.1c-12.7-13-30.4-21.1-50-21.1c-38.7,0-70,31.3-70,70c0,38.7,31.3,70,70,70v-20
		c-27.6,0-50-22.4-50-50s22.4-50,50-50s50,22.4,50,50v70h20V810h-20V891.1z"/>
	<rect x="1915" y="830" class="st0" width="20" height="20"/>
	<rect x="1915" y="870" class="st0" width="20" height="140"/>
	<path class="st0" d="M2025,870c-38.7,0-70,31.3-70,70c0,38.7,31.3,70,70,70s70-31.3,70-70C2095,901.3,2063.7,870,2025,870z
		 M2025,990c-27.6,0-50-22.4-50-50s22.4-50,50-50c27.6,0,50,22.4,50,50S2052.6,990,2025,990z"/>
	<path class="st0" d="M535,810h-40h-20v200h20V830h40c44.2,0,80,35.8,80,80s-35.8,80-80,80v20c55.2,0,100-44.8,100-100
		C635,854.8,590.2,810,535,810z"/>
	<path class="st0" d="M725,870c-38.7,0-70,31.3-70,70c0,38.7,31.3,70,70,70v-20c-24.2,0-44.4-17.2-49-40h98h14.3h6
		c0.5-3.3,0.7-6.6,0.7-10C795,901.3,763.7,870,725,870z M676,930c4.6-22.8,24.8-40,49-40s44.4,17.2,49,40H676z"/>
	<path class="st0" d="M915,930h-60c-11,0-20-9-20-20c0-11,9-20,20-20h90v-20h-90c-22.1,0-40,17.9-40,40c0,22.1,17.9,40,40,40h60
		c11,0,20,9,20,20s-9,20-20,20h-90v20h90c22.1,0,40-17.9,40-40C955,947.9,937.1,930,915,930z"/>
	<rect x="975" y="830" class="st0" width="20" height="20"/>
	<rect x="975" y="870" class="st0" width="20" height="140"/>
	<path class="st0" d="M1135,891.1c-12.7-13-30.4-21.1-50-21.1c-38.7,0-70,31.3-70,70c0,38.7,31.3,70,70,70v-20
		c-27.6,0-50-22.4-50-50s22.4-50,50-50s50,22.4,50,50v70c0,27.6-22.4,50-50,50v20c38.7,0,70-31.3,70-70V870h-20V891.1z"/>
	<path class="st0" d="M1235,870c-15.4,0-29.4,5.8-40,15.4V870h-20v140h20v-80c0-22.1,17.9-40,40-40s40,17.9,40,40v80h20v-80
		C1295,896.9,1268.1,870,1235,870z"/>
</g>
</svg>
